# Blender v2.68 (sub 2) OBJ File: 'shockwave_mesh.blend'
# www.blender.org
mtllib shockwave_emitter.mtl
o Torus
v 4.010000 0.000000 0.000000
v 3.995000 0.008660 0.000000
v 3.995000 -0.008660 0.000000
v 3.988033 0.000000 -0.419160
v 3.973115 0.008660 -0.417592
v 3.973115 -0.008660 -0.417592
v 3.922372 0.000000 -0.833726
v 3.907700 0.008660 -0.830607
v 3.907700 -0.008660 -0.830607
v 3.813737 0.000000 -1.239158
v 3.799471 0.008660 -1.234522
v 3.799471 -0.008660 -1.234522
v 3.663318 0.000000 -1.631014
v 3.649614 0.008660 -1.624913
v 3.649614 -0.008660 -1.624913
v 3.472762 0.000000 -2.005001
v 3.459771 0.008660 -1.997500
v 3.459771 -0.008660 -1.997500
v 3.244159 0.000000 -2.357019
v 3.232023 0.008660 -2.348202
v 3.232023 -0.008660 -2.348202
v 2.980011 0.000000 -2.683213
v 2.968864 0.008660 -2.673176
v 2.968864 -0.008660 -2.673176
v 2.683214 0.000000 -2.980011
v 2.673177 0.008660 -2.968863
v 2.673177 -0.008660 -2.968863
v 2.357018 0.000000 -3.244159
v 2.348201 0.008660 -3.232023
v 2.348201 -0.008660 -3.232023
v 2.005000 0.000000 -3.472762
v 1.997500 0.008660 -3.459771
v 1.997500 -0.008660 -3.459771
v 1.631014 0.000000 -3.663317
v 1.624913 0.008660 -3.649614
v 1.624913 -0.008660 -3.649614
v 1.239159 0.000000 -3.813737
v 1.234524 0.008660 -3.799470
v 1.234524 -0.008660 -3.799470
v 0.833725 0.000000 -3.922372
v 0.830607 0.008660 -3.907700
v 0.830607 -0.008660 -3.907700
v 0.419159 0.000000 -3.988033
v 0.417591 0.008660 -3.973115
v 0.417591 -0.008660 -3.973115
v 0.000000 0.000000 -4.010000
v 0.000000 0.008660 -3.995000
v 0.000000 -0.008660 -3.995000
v -0.419160 0.000000 -3.988033
v -0.417592 0.008660 -3.973115
v -0.417592 -0.008660 -3.973115
v -0.833727 0.000000 -3.922372
v -0.830608 0.008660 -3.907700
v -0.830608 -0.008660 -3.907700
v -1.239158 0.000000 -3.813737
v -1.234523 0.008660 -3.799471
v -1.234523 -0.008660 -3.799471
v -1.631014 0.000000 -3.663317
v -1.624913 0.008660 -3.649614
v -1.624913 -0.008660 -3.649614
v -2.005000 0.000000 -3.472763
v -1.997500 0.008660 -3.459772
v -1.997500 -0.008660 -3.459772
v -2.357020 0.000000 -3.244158
v -2.348203 0.008660 -3.232023
v -2.348203 -0.008660 -3.232023
v -2.683214 0.000000 -2.980011
v -2.673177 0.008660 -2.968863
v -2.673177 -0.008660 -2.968863
v -2.980011 0.000000 -2.683214
v -2.968863 0.008660 -2.673177
v -2.968863 -0.008660 -2.673177
v -3.244159 0.000000 -2.357018
v -3.232023 0.008660 -2.348201
v -3.232023 -0.008660 -2.348201
v -3.472762 0.000000 -2.005001
v -3.459771 0.008660 -1.997501
v -3.459771 -0.008660 -1.997501
v -3.663318 0.000000 -1.631014
v -3.649614 0.008660 -1.624913
v -3.649614 -0.008660 -1.624913
v -3.813737 0.000000 -1.239159
v -3.799471 0.008660 -1.234523
v -3.799471 -0.008660 -1.234523
v -3.922372 0.000000 -0.833727
v -3.907700 0.008660 -0.830608
v -3.907700 -0.008660 -0.830608
v -3.988033 0.000000 -0.419158
v -3.973115 0.008660 -0.417590
v -3.973115 -0.008660 -0.417590
v -4.010000 0.000000 -0.000000
v -3.995000 0.008660 -0.000000
v -3.995000 -0.008660 -0.000000
v -3.988033 0.000000 0.419158
v -3.973115 0.008660 0.417590
v -3.973115 -0.008660 0.417590
v -3.922372 0.000000 0.833727
v -3.907700 0.008660 0.830608
v -3.907700 -0.008660 0.830608
v -3.813737 0.000000 1.239157
v -3.799471 0.008660 1.234521
v -3.799471 -0.008660 1.234521
v -3.663318 0.000000 1.631014
v -3.649614 0.008660 1.624913
v -3.649614 -0.008660 1.624913
v -3.472763 0.000000 2.005000
v -3.459772 0.008660 1.997499
v -3.459772 -0.008660 1.997499
v -3.244159 0.000000 2.357018
v -3.232023 0.008660 2.348201
v -3.232023 -0.008660 2.348201
v -2.980011 0.000000 2.683214
v -2.968863 0.008660 2.673177
v -2.968863 -0.008660 2.673177
v -2.683214 0.000000 2.980011
v -2.673177 0.008660 2.968863
v -2.673177 -0.008660 2.968863
v -2.357020 0.000000 3.244158
v -2.348203 0.008660 3.232023
v -2.348203 -0.008660 3.232023
v -2.005000 0.000000 3.472763
v -1.997500 0.008660 3.459772
v -1.997500 -0.008660 3.459772
v -1.631015 0.000000 3.663317
v -1.624914 0.008660 3.649613
v -1.624914 -0.008660 3.649613
v -1.239158 0.000000 3.813737
v -1.234523 0.008660 3.799471
v -1.234523 -0.008660 3.799471
v -0.833728 0.000000 3.922371
v -0.830610 0.008660 3.907699
v -0.830610 -0.008660 3.907699
v -0.419160 0.000000 3.988033
v -0.417592 0.008660 3.973115
v -0.417592 -0.008660 3.973115
v 0.000000 0.000000 4.010000
v 0.000000 0.008660 3.995000
v 0.000000 -0.008660 3.995000
v 0.419157 0.000000 3.988033
v 0.417589 0.008660 3.973115
v 0.417589 -0.008660 3.973115
v 0.833725 0.000000 3.922372
v 0.830607 0.008660 3.907700
v 0.830607 -0.008660 3.907700
v 1.239159 0.000000 3.813737
v 1.234524 0.008660 3.799470
v 1.234524 -0.008660 3.799470
v 1.631012 0.000000 3.663318
v 1.624911 0.008660 3.649614
v 1.624911 -0.008660 3.649614
v 2.005000 0.000000 3.472762
v 1.997500 0.008660 3.459771
v 1.997500 -0.008660 3.459771
v 2.357017 0.000000 3.244160
v 2.348200 0.008660 3.232024
v 2.348200 -0.008660 3.232024
v 2.683213 0.000000 2.980012
v 2.673176 0.008660 2.968864
v 2.673176 -0.008660 2.968864
v 2.980011 0.000000 2.683213
v 2.968864 0.008660 2.673176
v 2.968864 -0.008660 2.673176
v 3.244157 0.000000 2.357021
v 3.232021 0.008660 2.348204
v 3.232021 -0.008660 2.348204
v 3.472762 0.000000 2.005001
v 3.459771 0.008660 1.997500
v 3.459771 -0.008660 1.997500
v 3.663318 0.000000 1.631013
v 3.649614 0.008660 1.624912
v 3.649614 -0.008660 1.624912
v 3.813736 0.000000 1.239160
v 3.799470 0.008660 1.234524
v 3.799470 -0.008660 1.234524
v 3.922372 0.000000 0.833726
v 3.907700 0.008660 0.830607
v 3.907700 -0.008660 0.830607
v 3.988033 0.000000 0.419162
v 3.973114 0.008660 0.417594
v 3.973114 -0.008660 0.417594
vn 0.499821 0.865733 -0.026195
vn -0.998629 0.000000 0.052336
vn 0.499821 -0.865733 -0.026195
vn 0.494345 0.865732 -0.078296
vn -0.987688 0.000000 0.156434
vn 0.494345 -0.865732 -0.078296
vn 0.483451 0.865734 -0.129540
vn -0.965926 0.000000 0.258819
vn 0.483451 -0.865734 -0.129540
vn 0.467260 0.865734 -0.179364
vn -0.933581 0.000000 0.358368
vn 0.467260 -0.865734 -0.179364
vn 0.445953 0.865734 -0.227225
vn -0.891006 0.000000 0.453991
vn 0.445953 -0.865734 -0.227225
vn 0.419757 0.865735 -0.272594
vn -0.838671 0.000000 0.544639
vn 0.419757 -0.865735 -0.272594
vn 0.388964 0.865735 -0.314977
vn -0.777146 0.000000 0.629320
vn 0.388964 -0.865735 -0.314977
vn 0.353910 0.865734 -0.353910
vn -0.707106 0.000000 0.707107
vn 0.353910 -0.865734 -0.353910
vn 0.314980 0.865732 -0.388968
vn -0.629320 0.000000 0.777146
vn 0.314980 -0.865732 -0.388968
vn 0.272597 0.865732 -0.419761
vn -0.544639 0.000000 0.838671
vn 0.272597 -0.865732 -0.419761
vn 0.227225 0.865733 -0.445955
vn -0.453991 0.000000 0.891007
vn 0.227225 -0.865733 -0.445955
vn 0.179366 0.865733 -0.467263
vn -0.358368 0.000000 0.933580
vn 0.179366 -0.865733 -0.467263
vn 0.129541 0.865733 -0.483451
vn -0.258820 0.000000 0.965926
vn 0.129541 -0.865733 -0.483451
vn 0.078297 0.865730 -0.494349
vn -0.156434 0.000000 0.987688
vn 0.078297 -0.865730 -0.494349
vn 0.026195 0.865729 -0.499827
vn -0.052336 0.000000 0.998630
vn 0.026195 -0.865729 -0.499827
vn -0.026195 0.865729 -0.499827
vn 0.052336 0.000000 0.998630
vn -0.026195 -0.865729 -0.499827
vn -0.078297 0.865731 -0.494348
vn 0.156435 0.000000 0.987688
vn -0.078297 -0.865731 -0.494348
vn -0.129541 0.865733 -0.483451
vn 0.258820 0.000000 0.965926
vn -0.129541 -0.865733 -0.483451
vn -0.179364 0.865735 -0.467259
vn 0.358368 0.000000 0.933580
vn -0.179364 -0.865735 -0.467259
vn -0.227222 0.865736 -0.445950
vn 0.453990 0.000000 0.891007
vn -0.227222 -0.865736 -0.445950
vn -0.272594 0.865735 -0.419757
vn 0.544639 0.000000 0.838671
vn -0.272594 -0.865735 -0.419757
vn -0.314979 0.865733 -0.388966
vn 0.629320 0.000000 0.777146
vn -0.314979 -0.865733 -0.388966
vn -0.353909 0.865735 -0.353908
vn 0.707108 0.000000 0.707106
vn -0.353909 -0.865735 -0.353908
vn -0.388962 0.865736 -0.314976
vn 0.777146 0.000000 0.629321
vn -0.388962 -0.865736 -0.314976
vn -0.419755 0.865736 -0.272593
vn 0.838670 0.000000 0.544640
vn -0.419755 -0.865736 -0.272593
vn -0.445952 0.865734 -0.227224
vn 0.891006 0.000000 0.453991
vn -0.445952 -0.865734 -0.227224
vn -0.467260 0.865735 -0.179364
vn 0.933581 0.000000 0.358368
vn -0.467260 -0.865735 -0.179364
vn -0.483451 0.865734 -0.129540
vn 0.965926 0.000000 0.258820
vn -0.483451 -0.865734 -0.129540
vn -0.494345 0.865732 -0.078296
vn 0.987689 0.000000 0.156433
vn -0.494345 -0.865732 -0.078296
vn -0.499818 0.865734 -0.026194
vn 0.998629 0.000000 0.052336
vn -0.499818 -0.865734 -0.026194
vn -0.499818 0.865734 0.026194
vn 0.998629 0.000000 -0.052336
vn -0.499818 -0.865734 0.026194
vn -0.494345 0.865732 0.078296
vn 0.987689 0.000000 -0.156433
vn -0.494345 -0.865732 0.078296
vn -0.483453 0.865732 0.129541
vn 0.965926 0.000000 -0.258820
vn -0.483453 -0.865732 0.129541
vn -0.467263 0.865733 0.179365
vn 0.933581 0.000000 -0.358367
vn -0.467263 -0.865733 0.179365
vn -0.445952 0.865735 0.227224
vn 0.891007 0.000000 -0.453991
vn -0.445952 -0.865735 0.227224
vn -0.419754 0.865737 0.272592
vn 0.838670 0.000000 -0.544639
vn -0.419754 -0.865737 0.272592
vn -0.388962 0.865736 0.314976
vn 0.777146 0.000000 -0.629321
vn -0.388962 -0.865736 0.314976
vn -0.353909 0.865735 0.353908
vn 0.707108 0.000000 -0.707106
vn -0.353909 -0.865735 0.353908
vn -0.314979 0.865733 0.388966
vn 0.629320 0.000000 -0.777146
vn -0.314979 -0.865733 0.388966
vn -0.272594 0.865735 0.419757
vn 0.544639 0.000000 -0.838671
vn -0.272594 -0.865735 0.419757
vn -0.227224 0.865734 0.445953
vn 0.453990 0.000000 -0.891007
vn -0.227224 -0.865734 0.445953
vn -0.179366 0.865733 0.467262
vn 0.358368 0.000000 -0.933580
vn -0.179366 -0.865733 0.467262
vn -0.129541 0.865732 0.483453
vn 0.258820 0.000000 -0.965926
vn -0.129541 -0.865732 0.483453
vn -0.078298 0.865729 0.494351
vn 0.156435 0.000000 -0.987688
vn -0.078298 -0.865729 0.494351
vn -0.026195 0.865729 0.499827
vn 0.052336 0.000000 -0.998630
vn -0.026195 -0.865729 0.499827
vn 0.026195 0.865731 0.499824
vn -0.052337 0.000000 -0.998629
vn 0.026195 -0.865731 0.499824
vn 0.078296 0.865732 0.494346
vn -0.156433 0.000000 -0.987688
vn 0.078296 -0.865732 0.494346
vn 0.129541 0.865733 0.483451
vn -0.258820 0.000000 -0.965926
vn 0.129541 -0.865733 0.483451
vn 0.179366 0.865733 0.467263
vn -0.358369 0.000000 -0.933580
vn 0.179366 -0.865733 0.467263
vn 0.227225 0.865733 0.445955
vn -0.453990 0.000000 -0.891007
vn 0.227225 -0.865733 0.445955
vn 0.272595 0.865733 0.419760
vn -0.544638 0.000000 -0.838671
vn 0.272595 -0.865733 0.419760
vn 0.314977 0.865734 0.388965
vn -0.629320 0.000000 -0.777146
vn 0.314977 -0.865734 0.388965
vn 0.353909 0.865735 0.353909
vn -0.707107 0.000000 -0.707107
vn 0.353909 -0.865735 0.353909
vn 0.388966 0.865733 0.314978
vn -0.777146 0.000000 -0.629320
vn 0.388966 -0.865733 0.314978
vn 0.419759 0.865733 0.272595
vn -0.838670 0.000000 -0.544640
vn 0.419759 -0.865733 0.272595
vn 0.445955 0.865732 0.227225
vn -0.891007 0.000000 -0.453990
vn 0.445955 -0.865732 0.227225
vn 0.467263 0.865732 0.179366
vn -0.933580 0.000000 -0.358368
vn 0.467263 -0.865732 0.179366
vn 0.483451 0.865733 0.129541
vn -0.965926 0.000000 -0.258820
vn 0.483451 -0.865733 0.129541
vn 0.494342 0.865734 0.078296
vn -0.987688 0.000000 -0.156434
vn 0.494342 -0.865734 0.078296
vn 0.499818 0.865734 0.026195
vn -0.998630 0.000000 -0.052337
vn 0.499818 -0.865734 0.026195
usemtl None
s off
f 1//1 4//1 5//1 2//1
f 2//2 5//2 6//2 3//2
f 1//3 3//3 6//3 4//3
f 4//4 7//4 8//4 5//4
f 5//5 8//5 9//5 6//5
f 6//6 9//6 7//6 4//6
f 7//7 10//7 11//7 8//7
f 8//8 11//8 12//8 9//8
f 9//9 12//9 10//9 7//9
f 10//10 13//10 14//10 11//10
f 11//11 14//11 15//11 12//11
f 12//12 15//12 13//12 10//12
f 13//13 16//13 17//13 14//13
f 14//14 17//14 18//14 15//14
f 15//15 18//15 16//15 13//15
f 16//16 19//16 20//16 17//16
f 17//17 20//17 21//17 18//17
f 18//18 21//18 19//18 16//18
f 19//19 22//19 23//19 20//19
f 20//20 23//20 24//20 21//20
f 21//21 24//21 22//21 19//21
f 22//22 25//22 26//22 23//22
f 23//23 26//23 27//23 24//23
f 24//24 27//24 25//24 22//24
f 25//25 28//25 29//25 26//25
f 26//26 29//26 30//26 27//26
f 27//27 30//27 28//27 25//27
f 28//28 31//28 32//28 29//28
f 29//29 32//29 33//29 30//29
f 30//30 33//30 31//30 28//30
f 31//31 34//31 35//31 32//31
f 32//32 35//32 36//32 33//32
f 33//33 36//33 34//33 31//33
f 34//34 37//34 38//34 35//34
f 35//35 38//35 39//35 36//35
f 36//36 39//36 37//36 34//36
f 37//37 40//37 41//37 38//37
f 38//38 41//38 42//38 39//38
f 39//39 42//39 40//39 37//39
f 40//40 43//40 44//40 41//40
f 41//41 44//41 45//41 42//41
f 42//42 45//42 43//42 40//42
f 43//43 46//43 47//43 44//43
f 44//44 47//44 48//44 45//44
f 45//45 48//45 46//45 43//45
f 46//46 49//46 50//46 47//46
f 47//47 50//47 51//47 48//47
f 48//48 51//48 49//48 46//48
f 49//49 52//49 53//49 50//49
f 50//50 53//50 54//50 51//50
f 51//51 54//51 52//51 49//51
f 52//52 55//52 56//52 53//52
f 53//53 56//53 57//53 54//53
f 54//54 57//54 55//54 52//54
f 55//55 58//55 59//55 56//55
f 56//56 59//56 60//56 57//56
f 57//57 60//57 58//57 55//57
f 58//58 61//58 62//58 59//58
f 59//59 62//59 63//59 60//59
f 60//60 63//60 61//60 58//60
f 61//61 64//61 65//61 62//61
f 62//62 65//62 66//62 63//62
f 63//63 66//63 64//63 61//63
f 64//64 67//64 68//64 65//64
f 65//65 68//65 69//65 66//65
f 66//66 69//66 67//66 64//66
f 67//67 70//67 71//67 68//67
f 68//68 71//68 72//68 69//68
f 69//69 72//69 70//69 67//69
f 70//70 73//70 74//70 71//70
f 71//71 74//71 75//71 72//71
f 72//72 75//72 73//72 70//72
f 73//73 76//73 77//73 74//73
f 74//74 77//74 78//74 75//74
f 75//75 78//75 76//75 73//75
f 76//76 79//76 80//76 77//76
f 77//77 80//77 81//77 78//77
f 78//78 81//78 79//78 76//78
f 79//79 82//79 83//79 80//79
f 80//80 83//80 84//80 81//80
f 81//81 84//81 82//81 79//81
f 82//82 85//82 86//82 83//82
f 83//83 86//83 87//83 84//83
f 84//84 87//84 85//84 82//84
f 85//85 88//85 89//85 86//85
f 86//86 89//86 90//86 87//86
f 87//87 90//87 88//87 85//87
f 88//88 91//88 92//88 89//88
f 89//89 92//89 93//89 90//89
f 90//90 93//90 91//90 88//90
f 91//91 94//91 95//91 92//91
f 92//92 95//92 96//92 93//92
f 93//93 96//93 94//93 91//93
f 94//94 97//94 98//94 95//94
f 95//95 98//95 99//95 96//95
f 96//96 99//96 97//96 94//96
f 97//97 100//97 101//97 98//97
f 98//98 101//98 102//98 99//98
f 99//99 102//99 100//99 97//99
f 100//100 103//100 104//100 101//100
f 101//101 104//101 105//101 102//101
f 102//102 105//102 103//102 100//102
f 103//103 106//103 107//103 104//103
f 104//104 107//104 108//104 105//104
f 105//105 108//105 106//105 103//105
f 106//106 109//106 110//106 107//106
f 107//107 110//107 111//107 108//107
f 108//108 111//108 109//108 106//108
f 109//109 112//109 113//109 110//109
f 110//110 113//110 114//110 111//110
f 111//111 114//111 112//111 109//111
f 112//112 115//112 116//112 113//112
f 113//113 116//113 117//113 114//113
f 114//114 117//114 115//114 112//114
f 115//115 118//115 119//115 116//115
f 116//116 119//116 120//116 117//116
f 117//117 120//117 118//117 115//117
f 118//118 121//118 122//118 119//118
f 119//119 122//119 123//119 120//119
f 120//120 123//120 121//120 118//120
f 121//121 124//121 125//121 122//121
f 122//122 125//122 126//122 123//122
f 123//123 126//123 124//123 121//123
f 124//124 127//124 128//124 125//124
f 125//125 128//125 129//125 126//125
f 126//126 129//126 127//126 124//126
f 127//127 130//127 131//127 128//127
f 128//128 131//128 132//128 129//128
f 129//129 132//129 130//129 127//129
f 130//130 133//130 134//130 131//130
f 131//131 134//131 135//131 132//131
f 132//132 135//132 133//132 130//132
f 133//133 136//133 137//133 134//133
f 134//134 137//134 138//134 135//134
f 135//135 138//135 136//135 133//135
f 136//136 139//136 140//136 137//136
f 137//137 140//137 141//137 138//137
f 138//138 141//138 139//138 136//138
f 139//139 142//139 143//139 140//139
f 140//140 143//140 144//140 141//140
f 141//141 144//141 142//141 139//141
f 142//142 145//142 146//142 143//142
f 143//143 146//143 147//143 144//143
f 144//144 147//144 145//144 142//144
f 145//145 148//145 149//145 146//145
f 146//146 149//146 150//146 147//146
f 147//147 150//147 148//147 145//147
f 148//148 151//148 152//148 149//148
f 149//149 152//149 153//149 150//149
f 150//150 153//150 151//150 148//150
f 151//151 154//151 155//151 152//151
f 152//152 155//152 156//152 153//152
f 153//153 156//153 154//153 151//153
f 154//154 157//154 158//154 155//154
f 155//155 158//155 159//155 156//155
f 156//156 159//156 157//156 154//156
f 157//157 160//157 161//157 158//157
f 158//158 161//158 162//158 159//158
f 159//159 162//159 160//159 157//159
f 160//160 163//160 164//160 161//160
f 161//161 164//161 165//161 162//161
f 162//162 165//162 163//162 160//162
f 163//163 166//163 167//163 164//163
f 164//164 167//164 168//164 165//164
f 165//165 168//165 166//165 163//165
f 166//166 169//166 170//166 167//166
f 167//167 170//167 171//167 168//167
f 168//168 171//168 169//168 166//168
f 169//169 172//169 173//169 170//169
f 170//170 173//170 174//170 171//170
f 171//171 174//171 172//171 169//171
f 172//172 175//172 176//172 173//172
f 173//173 176//173 177//173 174//173
f 174//174 177//174 175//174 172//174
f 175//175 178//175 179//175 176//175
f 176//176 179//176 180//176 177//176
f 177//177 180//177 178//177 175//177
f 178//178 1//178 2//178 179//178
f 179//179 2//179 3//179 180//179
f 180//180 3//180 1//180 178//180
